{"title":"The Bourne Identity[2002]DvDrip AC3[Eng]-FXG ","uid":5809504,"size":734620182,"categoryP":"video","categoryS":"other","magnet":"?xt=urn:btih:b78510e1722f1773f179d0d1b0a79e9ab698c646&amp;dn=The+Bourne+Identity%5B2002%5DDvDrip+AC3%5BEng%5D-FXG+&amp;tr=udp%3A%2F%2Ftracker.openbittorrent.com%3A80&amp;tr=udp%3A%2F%2Fopen.demonii.com%3A1337&amp;tr=udp%3A%2F%2Ftracker.coppersurfer.tk%3A6969&amp;tr=udp%3A%2F%2Fexodus.desync.com%3A6969","seeders":1,"leechers":0,"uploader":"kuttunni","files":3,"time":1283573820,"description":"Duration: 01:58:26.89, start: 0.000000, bitrate: 826 kb/s\nStream #0.0: Video: mpeg4, yuv420p, 640x272 [PAR 1:1 DAR 40:17], 23.98 tbr, 23.98 tbn, 23.98 tbc\nStream #0.1: Audio: mp3, 48000 Hz, 2 channels, s16, 128 kb/s","torrent":{"xt":"urn:btih:b78510e1722f1773f179d0d1b0a79e9ab698c646","amp;dn":"The+Bourne+Identity%5B2002%5DDvDrip+AC3%5BEng%5D-FXG+","amp;tr":["udp%3A%2F%2Ftracker.openbittorrent.com%3A80","udp%3A%2F%2Fopen.demonii.com%3A1337","udp%3A%2F%2Ftracker.coppersurfer.tk%3A6969","udp%3A%2F%2Fexodus.desync.com%3A6969"],"infoHash":"b78510e1722f1773f179d0d1b0a79e9ab698c646","infoHashBuffer":{"type":"Buffer","data":[183,133,16,225,114,47,23,115,241,121,208,209,176,167,158,154,182,152,198,70]},"announce":[],"urlList":[]}}